<svg xmlns="http://www.w3.org/2000/svg" version="1.1" xmlns:xlink="http://www.w3.org/1999/xlink" xmlns:svgjs="http://svgjs.dev/svgjs" viewBox="0 0 800 800"><defs><filter id="ssspot-filter" x="-20%" y="-20%" width="140%" height="140%" filterUnits="objectBoundingBox" primitiveUnits="userSpaceOnUse" color-interpolation-filters="sRGB">
	<feTurbulence type="turbulence" baseFrequency="0.022 0.218" numOctaves="2" seed="3" stitchTiles="stitch" x="0%" y="0%" width="100%" height="100%" result="turbulence"></feTurbulence>
	<feGaussianBlur stdDeviation="0 3" x="0%" y="0%" width="100%" height="100%" in="turbulence" edgeMode="duplicate" result="blur"></feGaussianBlur>
	<feDisplacementMap in="SourceGraphic" in2="blur" scale="32" xChannelSelector="R" yChannelSelector="B" x="0%" y="0%" width="100%" height="100%" result="displacementMap"></feDisplacementMap>
</filter></defs><rect width="100%" height="100%" fill="hsl(32, 100%, 90%)"></rect><g fill="hsl(32, 100%, 50%)" style="opacity:0.6;" filter="url(#ssspot-filter)"><circle r="9.88538425772229" cx="240.0919342340887" cy="185.0496650544732" opacity="0.16952160511679767"></circle><circle r="7.221072992811656" cx="301.6834746989464" cy="705.5364342012614" opacity="0.3871736057009779"></circle><circle r="13.519628739104768" cx="270.80833651576467" cy="758.4124371000537" opacity="0.10673981557158503"></circle><circle r="5.719869927043571" cx="316.1907906122812" cy="257.23966894896176" opacity="0.7213407112753906"></circle><circle r="9.026485579222676" cx="709.8464266460111" cy="364.88849027960646" opacity="0.5948043836549"></circle><circle r="6.7325706306124715" cx="557.6521162166938" cy="582.173121209634" opacity="0.18492879860556194"></circle><circle r="5.475532772411332" cx="552.6474961659732" cy="483.60395261965385" opacity="0.3981376828540889"></circle><circle r="10.490741420466634" cx="721.6314403031254" cy="152.1025645309972" opacity="0.4533413544774245"></circle><circle r="8.504559501652677" cx="781.7056132382386" cy="484.3006215876381" opacity="0.4409529109477216"></circle><circle r="7.444586634131442" cx="40.281496682634746" cy="245.87433800736073" opacity="0.36766758516057074"></circle><circle r="5.901106415705158" cx="212.14267709970972" cy="508.7015959883114" opacity="0.760299342299534"></circle><circle r="6.6731855024623" cx="205.026859715462" cy="712.479124023933" opacity="0.3800066532815779"></circle><circle r="8.545836176198115" cx="539.349681267418" cy="292.9977378141486" opacity="0.9174530344780892"></circle><circle r="6.4093393114148896" cx="399.5649772706448" cy="608.1803740553405" opacity="0.5189474722996787"></circle><circle r="6.542691037808708" cx="159.7224002190606" cy="669.5911274299839" opacity="0.5953244362562389"></circle><circle r="6.367242704555482" cx="236.0906656915872" cy="96.91867111828333" opacity="0.5699613737814836"></circle><circle r="9.128410953755635" cx="641.0400240829398" cy="632.2253053552589" opacity="0.25118392069382417"></circle><circle r="8.334943077656863" cx="124.70594137566428" cy="759.5506881254144" opacity="0.9202695357174435"></circle><circle r="7.572113697055581" cx="314.57945607199343" cy="73.55216582435357" opacity="0.30484783654091907"></circle><circle r="7.694080698806795" cx="48.18407521625668" cy="97.13744119758464" opacity="0.22198876876132065"></circle><circle r="10.264064812576294" cx="159.76070316019116" cy="233.69335594630425" opacity="0.7233018022886339"></circle><circle r="8.514621597637094" cx="177.72648193761242" cy="456.98018276112737" opacity="0.28436601338511763"></circle><circle r="8.621012837619055" cx="20.622661672078117" cy="744.4688397646182" opacity="0.36748211271959685"></circle><circle r="4.68708585385309" cx="577.9906801338321" cy="325.133748107303" opacity="0.9456289730614424"></circle><circle r="6.118382411386701" cx="609.2195610571637" cy="578.043849403827" opacity="0.4892408851633503"></circle><circle r="11.31054054506443" cx="482.7407067354961" cy="280.2074224165193" opacity="0.3599823154808791"></circle><circle r="10.285561425756521" cx="251.9933625903158" cy="23.435847792200434" opacity="0.880219463655906"></circle><circle r="14.658059613335897" cx="357.3105879713474" cy="401.4598180276001" opacity="0.1523209291842787"></circle><circle r="10.159805439539348" cx="348.6812550372354" cy="28.074985863215673" opacity="0.15792150643666314"></circle><circle r="5.274876582756594" cx="505.41388020114243" cy="433.4616871078712" opacity="0.5194772285453854"></circle><circle r="10.862171836256607" cx="85.63511733739401" cy="730.2609075670481" opacity="0.4396320948706527"></circle><circle r="8.070849401277284" cx="233.761832418561" cy="382.31784161417096" opacity="0.5074775545680539"></circle><circle r="8.125039630315763" cx="577.4287754101115" cy="551.1052643087245" opacity="0.18684964818623487"></circle><circle r="15.116218458378603" cx="502.37719490885877" cy="95.45217512070789" opacity="0.2597108850095221"></circle><circle r="10.491909123304783" cx="370.23150053363116" cy="304.70119646317005" opacity="0.12813552908747075"></circle><circle r="9.25261088258273" cx="714.8501244644035" cy="425.1961935367871" opacity="0.14114156596519412"></circle><circle r="6.619758515678261" cx="732.3721332502669" cy="285.97266281668936" opacity="0.5304915693338805"></circle><circle r="6.915407795252644" cx="310.8371701126299" cy="300.71864335099394" opacity="0.2572427147435435"></circle><circle r="8.768060450046999" cx="689.9079110298674" cy="601.5847896340805" opacity="0.4088339638617704"></circle><circle r="6.063075650172523" cx="398.0471391606201" cy="24.820241070129743" opacity="0.5678565406728705"></circle><circle r="12.205621111479063" cx="479.3439944391861" cy="697.9008299251277" opacity="0.9268692269892123"></circle><circle r="6.5978486166228665" cx="596.7795373225408" cy="225.95195238085753" opacity="0.26839997275302707"></circle><circle r="7.827848953765949" cx="603.2281990778665" cy="511.6530745099807" opacity="0.8217818515110883"></circle><circle r="6.611155076245673" cx="124.52036192068122" cy="388.4945847157578" opacity="0.16327470530042795"></circle><circle r="6.076258829795792" cx="642.0946837275278" cy="565.8859557410498" opacity="0.46018309590248807"></circle><circle r="6.115788873810326" cx="747.4836337462921" cy="761.5690206879241" opacity="0.4300263451225389"></circle><circle r="9.587672619227423" cx="283.923808655224" cy="433.3452718435011" opacity="0.7483728956556153"></circle><circle r="8.822304703999588" cx="556.0090032884141" cy="523.0805558765328" opacity="0.23021171287732578"></circle><circle r="9.139129274990772" cx="571.104741031716" cy="263.4711808032668" opacity="0.14009998267989754"></circle><circle r="8.248551097570697" cx="37.39228377887823" cy="190.4812584493261" opacity="0.6194618118602868"></circle><circle r="7.860379910311475" cx="131.27957727937903" cy="26.68849023659959" opacity="0.7265000481271114"></circle><circle r="11.018113870918778" cx="658.3197129668345" cy="60.11572349690997" opacity="0.28604803557928105"></circle><circle r="5.6080291088975684" cx="517.449262305632" cy="402.8821377327979" opacity="0.22919271103186045"></circle><circle r="6.241293960067539" cx="636.0821211501972" cy="487.98740800547444" opacity="0.36694155880921997"></circle><circle r="12.937141310444128" cx="566.6356432847858" cy="137.48110847563103" opacity="0.12354316058791028"></circle><circle r="9.598935212894474" cx="90.43252549161187" cy="149.84147791714727" opacity="0.11811697703777713"></circle><circle r="9.582157383217503" cx="263.8486351259287" cy="279.466192199041" opacity="0.5543940192955299"></circle><circle r="7.540620587206334" cx="646.7494538576655" cy="228.19719480081775" opacity="0.5953969473947723"></circle><circle r="11.758526942421458" cx="768.5542221739546" cy="174.39089552957554" opacity="0.7457251884133183"></circle><circle r="6.00363754360425" cx="119.38727345866815" cy="698.6972287176636" opacity="0.5991744242063259"></circle><circle r="8.093306614908824" cx="163.2968190561052" cy="777.7434763416844" opacity="0.1677436811807711"></circle><circle r="9.058658546818503" cx="624.2032851764609" cy="18.17544471167466" opacity="0.7099721979994272"></circle><circle r="11.229878227439713" cx="97.81545954520392" cy="257.2990339879383" opacity="0.2007937805755714"></circle><circle r="8.555597509331076" cx="451.39800316190093" cy="622.0757017177649" opacity="0.37455402826446427"></circle><circle r="4.322310488749493" cx="14.584076312669286" cy="273.9954269635437" opacity="0.9524646819253718"></circle><circle r="13.444131841428659" cx="340.2901239545283" cy="770.5028447337187" opacity="0.8781709649035285"></circle><circle r="10.675767899184601" cx="776.1923035003176" cy="361.74713115449384" opacity="0.4609036838500171"></circle><circle r="12.017471603010325" cx="775.484543542402" cy="119.05529968123254" opacity="0.9950190566863137"></circle><circle r="11.399832500781967" cx="116.5904536445741" cy="198.89431182863547" opacity="0.5503932702259008"></circle><circle r="8.938019022768831" cx="39.66873090044567" cy="27.70196435535943" opacity="0.14714357897639382"></circle><circle r="12.497346626714581" cx="229.8271473490169" cy="453.1942913023143" opacity="0.6897629697535456"></circle><circle r="10.35539577193853" cx="684.2898500965273" cy="469.1417786367591" opacity="0.5389258690296373"></circle><circle r="9.516830831748276" cx="212.8489215430335" cy="647.4671892540786" opacity="0.2229619618081473"></circle><circle r="11.61195071358628" cx="431.94699968705464" cy="292.40510563510685" opacity="0.6742232129680613"></circle><circle r="5.887161933111677" cx="749.7875385274772" cy="452.461291896696" opacity="0.4163776894765513"></circle><circle r="9.757666569061648" cx="308.40150585820635" cy="570.495794493765" opacity="0.5004816472628397"></circle><circle r="12.84018336885885" cx="194.59052074238215" cy="162.8817371272072" opacity="0.2667269700051188"></circle><circle r="6.882635683981167" cx="658.9503990107225" cy="516.8122359679256" opacity="0.8806871312570074"></circle><circle r="13.847318981787026" cx="509.9053156186749" cy="30.46648935098612" opacity="0.3022223193198355"></circle><circle r="5.1515455633019" cx="43.227862233040234" cy="304.0746091262309" opacity="0.3044008215560101"></circle><circle r="9.8311049462243" cx="498.97515067844324" cy="769.7711086438608" opacity="0.9205053597182982"></circle><circle r="9.157192818736927" cx="225.08576381436805" cy="287.05476543245817" opacity="0.459827996864001"></circle><circle r="14.280335980314986" cx="305.56864464536847" cy="644.945067162432" opacity="0.11548981854142198"></circle><circle r="7.176771939708139" cx="257.8254542981975" cy="332.1154749767863" opacity="0.8539973568444195"></circle><circle r="8.053918080129948" cx="464.2631986703915" cy="565.3061163711062" opacity="0.5632817115770604"></circle><circle r="7.90242639819243" cx="473.26687996555967" cy="350.9395639037376" opacity="0.9625776350476182"></circle><circle r="6.025817074070234" cx="159.15211192348403" cy="81.64303892842166" opacity="0.6393207914807961"></circle><circle r="9.999159904895322" cx="336.00193901124373" cy="219.00729026224448" opacity="0.9535814438132321"></circle><circle r="7.630646398950781" cx="472.6511344230195" cy="469.3365354696648" opacity="0.7373821408735974"></circle><circle r="5.265484861777255" cx="81.19487068275099" cy="387.5765587681063" opacity="0.4218127698105433"></circle><circle r="8.473747719468724" cx="39.79651724275113" cy="394.30497326140056" opacity="0.5389335300395641"></circle><circle r="4.294956476150647" cx="13.575324794444944" cy="373.1136282139786" opacity="0.1853023776638636"></circle><circle r="5.599125209394251" cx="556.7822350001417" cy="353.81259446799953" opacity="0.7107377618141822"></circle><circle r="7.611477394720703" cx="365.8616341486922" cy="187.77671334888743" opacity="0.6211957072927236"></circle><circle r="7.381600989354077" cx="725.908095927779" cy="217.17105380287168" opacity="0.28367966087617047"></circle><circle r="8.346357791315503" cx="92.87084115753213" cy="651.4903749231352" opacity="0.5735766503578595"></circle><circle r="3.7116275074856153" cx="520.9612055124013" cy="349.1640402545753" opacity="0.4345674368552729"></circle><circle r="5.432633241653166" cx="40.77564029140538" cy="340.03056389368163" opacity="0.33935616464261353"></circle><circle r="6.84562594649149" cx="382.1025866186374" cy="239.58768185407013" opacity="0.3749646236151791"></circle><circle r="9.597772619496528" cx="672.1566498520086" cy="415.7280843302636" opacity="0.20830929063955916"></circle><circle r="8.717721432896557" cx="657.7877334371144" cy="361.90259710130687" opacity="0.22167248898200173"></circle><circle r="11.854389750477873" cx="439.51962572181424" cy="49.481937183439044" opacity="0.8594530575692636"></circle><circle r="9.865079042528995" cx="694.0154389996126" cy="254.66771285595854" opacity="0.5384784000812872"></circle><circle r="4.905045572553126" cx="625.2681394335257" cy="433.2829453494489" opacity="0.2028472288700109"></circle><circle r="6.103266650795679" cx="636.8037916851349" cy="459.9782795095833" opacity="0.112264558240744"></circle><circle r="14.327915072333308" cx="28.65106686297363" cy="564.9115683737922" opacity="0.28907604543623144"></circle><circle r="9.73308983718876" cx="577.6026400763997" cy="393.85954795801035" opacity="0.7737950026783439"></circle><circle r="9.283155452420768" cx="112.66463934272525" cy="317.18780950007124" opacity="0.2156149177366159"></circle><circle r="5.119010564319775" cx="781.3713225140938" cy="775.3813366083012" opacity="0.4541174102683989"></circle><circle r="9.890073243136298" cx="114.54751473673977" cy="89.80178837343547" opacity="0.24439278133602185"></circle><circle r="8.565723787907285" cx="172.62266309488308" cy="394.52659264638316" opacity="0.9950421398909922"></circle><circle r="8.079412035513414" cx="275.9790082559529" cy="58.015633546201684" opacity="0.7537173954668995"></circle><circle r="9.019579680883062" cx="621.143635254983" cy="393.67531992562107" opacity="0.604789939627064"></circle><circle r="11.620470461051344" cx="415.7539601534951" cy="461.8870512838729" opacity="0.711040991490025"></circle><circle r="10.020891703790985" cx="624.2372656287365" cy="170.60357692191556" opacity="0.8032659578197976"></circle><circle r="5.622530430305216" cx="474.86505715921334" cy="205.23956845773654" opacity="0.43830404975940274"></circle><circle r="10.386502829625222" cx="411.4027276840826" cy="99.02253551036715" opacity="0.6128794679034755"></circle><circle r="7.413273777617475" cx="726.2951257891045" cy="102.14074874899272" opacity="0.9668633444216991"></circle><circle r="8.963102131633663" cx="249.19993308833546" cy="556.2123042476062" opacity="0.16531078684227285"></circle><circle r="10.912736795390572" cx="86.2194803506587" cy="590.1422740320444" opacity="0.14595788206037694"></circle><circle r="10.36646361111299" cx="504.19662094412666" cy="156.81478931549998" opacity="0.5126893011932778"></circle><circle r="8.710257160808652" cx="610.9093937609487" cy="104.99083926565491" opacity="0.635220140035612"></circle><circle r="6.927308858326751" cx="610.6637275442496" cy="335.180366188899" opacity="0.773409613950292"></circle><circle r="7.9095723634439175" cx="256.1694933481041" cy="232.07473047448002" opacity="0.14130739027224576"></circle><circle r="12.39323442831033" cx="767.5862520673076" cy="585.3627454678862" opacity="0.9630464072422108"></circle><circle r="5.781934546705717" cx="780.1073722586596" cy="691.6920302580584" opacity="0.8633206718208901"></circle><circle r="10.379752284462873" cx="548.1313386900515" cy="428.6663685007089" opacity="0.911149330652332"></circle><circle r="7.523355528030751" cx="157.18595000201356" cy="590.042375663954" opacity="0.45943501595126046"></circle><circle r="10.542228612307184" cx="727.0031832711852" cy="705.8456838455631" opacity="0.40503554067339187"></circle><circle r="8.137176325473728" cx="779.4198647830076" cy="221.13176683585297" opacity="0.5918086099806867"></circle><circle r="7.635205545237888" cx="224.88711628073813" cy="780.1001685075342" opacity="0.31727422451133963"></circle><circle r="9.749122104475228" cx="247.32417989130562" cy="691.2124266327335" opacity="0.9246615582334081"></circle><circle r="12.691403662604609" cx="511.6592301853532" cy="236.28647117939144" opacity="0.58286086266521"></circle><circle r="9.424628706492463" cx="395.372690011301" cy="152.41153111131752" opacity="0.3962357519513765"></circle><circle r="4.418114348197273" cx="515.4366622310974" cy="471.72269862543055" opacity="0.4404615834229174"></circle><circle r="5.735916249996476" cx="335.8428604658718" cy="158.3312585690737" opacity="0.5493932592522544"></circle><circle r="10.110329867732343" cx="103.2259206038229" cy="454.8109498380776" opacity="0.660224659559209"></circle><circle r="5.6271632261940665" cx="644.3291431408036" cy="312.4374672334773" opacity="0.6380930629617312"></circle><circle r="12.252689264706936" cx="420.39672428992105" cy="755.9348703748125" opacity="0.2508523043717492"></circle><circle r="6.2681251522905015" cx="17.302157602580223" cy="119.45380031858676" opacity="0.4871671467836185"></circle><circle r="12.097533960465523" cx="270.66428075177816" cy="504.9118076864267" opacity="0.5067556756731387"></circle><circle r="11.101314578103118" cx="54.2543881759662" cy="694.3767835596784" opacity="0.8301532497314755"></circle><circle r="9.446131257306579" cx="774.2639418575828" cy="22.329144121336498" opacity="0.6634471754381835"></circle><circle r="10.137973897965722" cx="680.5525140253325" cy="677.3787968716687" opacity="0.3650541122754999"></circle><circle r="5.646063356221777" cx="764.7480949060463" cy="65.00189598376998" opacity="0.8039794559425009"></circle><circle r="8.140592956779754" cx="451.807195401886" cy="141.81378567754206" opacity="0.600669612984023"></circle><circle r="5.884205865949174" cx="194.0650336706637" cy="14.897669307915905" opacity="0.18512227353650684"></circle><circle r="8.29005973035613" cx="206.54711428507505" cy="46.89669985912083" opacity="0.5522639263698058"></circle><circle r="4.567332235164358" cx="196.7698452450667" cy="681.1024832579794" opacity="0.6683485016333998"></circle><circle r="4.65544549866066" cx="662.3104579061754" cy="784.5613364076092" opacity="0.5881859915280502"></circle><circle r="12.84060937528652" cx="669.3621209663361" cy="130.78243175293898" opacity="0.9397853018170336"></circle><circle r="8.065572706275798" cx="777.9033749107117" cy="651.760115669133" opacity="0.13931838233492047"></circle><circle r="8.553097182196012" cx="515.8189073743346" cy="548.4268158143673" opacity="0.28664328334802514"></circle><circle r="5.3373436662158795" cx="483.1864253518463" cy="390.36633881056696" opacity="0.5541135514366676"></circle><circle r="6.345031016695716" cx="257.93402679348014" cy="615.4690366806242" opacity="0.8205057489729942"></circle><circle r="5.74915217824436" cx="713.6816871961466" cy="772.039031053266" opacity="0.37771308444566776"></circle><circle r="9.047919007242427" cx="361.1190559050584" cy="700.809716605349" opacity="0.5551700203670697"></circle><circle r="6.347119231965092" cx="82.30338481333463" cy="62.3370511406179" opacity="0.15619865651530013"></circle><circle r="8.310742183484436" cx="188.87979223957333" cy="548.7811730144255" opacity="0.7168688178206295"></circle><circle r="10.262580027931437" cx="460.71476413498755" cy="512.1054028938684" opacity="0.26577232300946163"></circle><circle r="9.652999017223742" cx="768.36212488622" cy="263.86366450735335" opacity="0.39523392186498696"></circle><circle r="6.42264962067469" cx="709.9487040659203" cy="23.389561900196927" opacity="0.38315423914924795"></circle><circle r="11.527113400424142" cx="622.8038682705239" cy="747.6774765983456" opacity="0.6930659063705007"></circle><circle r="7.64348663666175" cx="503.4240813267739" cy="319.65625567279926" opacity="0.17645415127194186"></circle><circle r="14.94280527821773" cx="28.15503241009554" cy="642.1130463511045" opacity="0.31864840570481046"></circle><circle r="10.506707233493824" cx="144.10966684578173" cy="632.9754832856137" opacity="0.33456736500708845"></circle><circle r="8.7832575035014" cx="34.95851732191002" cy="441.5967765148113" opacity="0.4669133871337575"></circle><circle r="8.585384326703673" cx="412.75948742696625" cy="413.8799267794065" opacity="0.8539974827340874"></circle><circle r="12.469274181625757" cx="76.89801719246864" cy="513.7115852574033" opacity="0.9276729520029322"></circle><circle r="10.837752380277578" cx="66.02776980318185" cy="778.033741463386" opacity="0.9740676688735381"></circle><circle r="11.482969093431553" cx="178.44135092896926" cy="317.3585946346392" opacity="0.5733368633271265"></circle><circle r="7.134902247726195" cx="25.799769741907586" cy="495.9536640833218" opacity="0.43150034808251314"></circle><circle r="12.92774156551819" cx="316.6238083168298" cy="359.624417460874" opacity="0.9922435857553338"></circle><circle r="11.208324146999574" cx="764.6190164528001" cy="405.73298763572893" opacity="0.5034309729894376"></circle><circle r="6.526400814598735" cx="385.4962809579846" cy="522.881691946848" opacity="0.646519760687128"></circle><circle r="14.250898124220367" cx="409.46196243005795" cy="668.7080353375854" opacity="0.2710666397782364"></circle><circle r="11.574983570634645" cx="412.49589001549907" cy="344.9084073486824" opacity="0.1875730269893396"></circle><circle r="3.4204287882798714" cx="484.2460908712303" cy="420.8277061771893" opacity="0.5433185072020367"></circle><circle r="5.3528916391399735" cx="593.2659726547921" cy="647.2428686865084" opacity="0.2523057715174363"></circle><circle r="8.675984251726796" cx="681.6968400595232" cy="191.01396868835448" opacity="0.22970522551992478"></circle><circle r="7.3212290459425375" cx="293.0796557408437" cy="200.13480252938464" opacity="0.9734766434086333"></circle><circle r="6.63701608215229" cx="435.7849936642172" cy="242.6945230554926" opacity="0.9861741145940973"></circle><circle r="7.504657964664045" cx="309.40332318241605" cy="134.90848606131445" opacity="0.12147413926874188"></circle><circle r="6.823663286337597" cx="148.44367216839825" cy="134.04349903440047" opacity="0.7349198154745316"></circle><circle r="6.859945845126568" cx="270.5426354832375" cy="125.50895347145881" opacity="0.5325916864791269"></circle><circle r="7.580328340823886" cx="427.2994240170174" cy="194.6193207825413" opacity="0.2077990906391196"></circle><circle r="10.477268957259986" cx="544.6520976055907" cy="716.4263255108546" opacity="0.46821587642054985"></circle><circle r="12.337186187022724" cx="509.331552258022" cy="627.6918655691418" opacity="0.6523020037028855"></circle><circle r="12.380257658017253" cx="734.7110180328875" cy="636.3256998879201" opacity="0.7292433913209403"></circle><circle r="7.469715854060526" cx="202.94976010569582" cy="248.35900736977453" opacity="0.5781069576932765"></circle><circle r="8.137207154232387" cx="457.0726554607734" cy="426.14922819548275" opacity="0.4525373285663974"></circle><circle r="9.158794957713116" cx="321.8446244178335" cy="515.9829722568488" opacity="0.5371673361983633"></circle><circle r="8.327697850773525" cx="571.9823051134728" cy="614.1765862146386" opacity="0.7255813066336975"></circle><circle r="8.129480727626039" cx="194.9151674495027" cy="90.28822449859071" opacity="0.8310928441197005"></circle><circle r="9.972774792314251" cx="357.5160602892991" cy="94.28569899267748" opacity="0.8851677267879885"></circle><circle r="7.40161437650938" cx="160.06726968156593" cy="713.9317483179175" opacity="0.22145198264537996"></circle><circle r="6.850611692502924" cx="700.2843141946028" cy="311.62874789133093" opacity="0.8262040987459716"></circle><circle r="6.30692665806325" cx="766.6806139263148" cy="317.29628277383966" opacity="0.14649655312657495"></circle><circle r="8.35272441444563" cx="200.59073344483602" cy="743.6727637070641" opacity="0.826282549350197"></circle><circle r="9.447327046208105" cx="577.5167502261714" cy="772.6436057789631" opacity="0.8172619427446215"></circle><circle r="3.7809501467434137" cx="530.8706433618664" cy="380.3155886002258" opacity="0.26462525233654005"></circle><circle r="9.705451132739272" cx="371.89483591260495" cy="483.0911052463093" opacity="0.5221491289336586"></circle><circle r="6.235786406985149" cx="146.2576085558703" cy="492.1685105344946" opacity="0.994722318769189"></circle><circle r="9.209349830248959" cx="722.7705590164568" cy="497.86402821589826" opacity="0.4446788692078041"></circle><circle r="6.702144391076935" cx="692.5061188610508" cy="548.1428827530772" opacity="0.5140481241597378"></circle><circle r="8.729543082955075" cx="580.2405837833813" cy="53.218887737687396" opacity="0.17573030180398647"></circle><circle r="11.324325057965718" cx="208.79979040425113" cy="601.1016810712736" opacity="0.9103871098279981"></circle><circle r="10.036838314968904" cx="587.7311083032826" cy="450.4395978304846" opacity="0.3941779391628568"></circle><circle r="10.750227200240444" cx="351.5289986161647" cy="606.1994751244414" opacity="0.5611115845952698"></circle><circle r="8.039846010789702" cx="434.62253139434824" cy="381.864381899525" opacity="0.4260352132742544"></circle><circle r="6.949176065756063" cx="559.2083993669582" cy="672.2086805596887" opacity="0.6145728443600122"></circle><circle r="4.556335423689177" cx="698.2810229110241" cy="76.36302278122926" opacity="0.4283947971418647"></circle><circle r="7.5689131075874805" cx="754.2045599754236" cy="538.0740531249573" opacity="0.4578058016585782"></circle><circle r="5.482985497528407" cx="303.87841055760856" cy="20.17178217242332" opacity="0.5023320199784146"></circle><circle r="9.022810601226986" cx="403.13769662533224" cy="557.7377703488436" opacity="0.9976703065320924"></circle><circle r="9.261178037021164" cx="334.2167507469107" cy="458.06458061467384" opacity="0.4955799066588221"></circle><circle r="10.615394537039606" cx="670.7275132805767" cy="739.24035116756" opacity="0.5134539489659719"></circle><circle r="8.72252758806598" cx="128.06874884770656" cy="541.4503707237943" opacity="0.4657382811449058"></circle><circle r="9.824716990185706" cx="545.7704922911942" cy="191.9613073668419" opacity="0.5734664046234783"></circle><circle r="4.562952564159446" cx="646.2174145432181" cy="275.4795497018378" opacity="0.2772382483666366"></circle><circle r="8.053785038954178" cx="616.8462672852875" cy="697.2880628252167" opacity="0.18109262302637022"></circle><circle r="5.051125313995404" cx="776.1107301388067" cy="726.034156455905" opacity="0.3451854677225268"></circle></g></svg>