<svg xmlns="http://www.w3.org/2000/svg" version="1.1" xmlns:xlink="http://www.w3.org/1999/xlink" xmlns:svgjs="http://svgjs.dev/svgjs" viewBox="0 0 800 800" style="opacity:0.6;"><defs><linearGradient x1="50%" y1="0%" x2="50%" y2="100%" id="ffflurry-grad" gradientTransform="rotate(270)"><stop stop-color="#111122" stop-opacity="1" offset="0%"></stop><stop stop-color="hsl(27, 96%, 35%)" stop-opacity="1" offset="45%"></stop><stop stop-color="#facf06" stop-opacity="1" offset="100%"></stop></linearGradient></defs><rect width="100%" height="100%" fill="#111122"></rect><g fill="url(#ffflurry-grad)"><rect width="808" height="2" x="37" y="623" rx="1" transform="rotate(29, 441, 624)" opacity="0.24"></rect><rect width="560" height="2" x="251" y="46" rx="1" transform="rotate(29, 531, 47)" opacity="0.76"></rect><rect width="164" height="2" x="496" y="343" rx="1" transform="rotate(29, 578, 344)" opacity="0.54"></rect><rect width="143" height="2" x="654.5" y="382" rx="1" transform="rotate(29, 726, 383)" opacity="0.10"></rect><rect width="792" height="2" x="-49" y="330" rx="1" transform="rotate(29, 347, 331)" opacity="0.64"></rect><rect width="383" height="2" x="-114.5" y="369" rx="1" transform="rotate(29, 77, 370)" opacity="0.38"></rect><rect width="703" height="2" x="382.5" y="73" rx="1" transform="rotate(29, 734, 74)" opacity="0.20"></rect><rect width="107" height="2" x="694.5" y="501" rx="1" transform="rotate(29, 748, 502)" opacity="0.45"></rect><rect width="566" height="2" x="189" y="285" rx="1" transform="rotate(29, 472, 286)" opacity="0.19"></rect><rect width="146" height="2" x="546" y="671" rx="1" transform="rotate(29, 619, 672)" opacity="0.45"></rect><rect width="983" height="2" x="-38.5" y="466" rx="1" transform="rotate(29, 453, 467)" opacity="0.93"></rect><rect width="769" height="2" x="-112.5" y="705" rx="1" transform="rotate(29, 272, 706)" opacity="0.92"></rect><rect width="399" height="2" x="551.5" y="244" rx="1" transform="rotate(29, 751, 245)" opacity="0.56"></rect><rect width="100" height="2" x="5" y="491" rx="1" transform="rotate(29, 55, 492)" opacity="0.83"></rect><rect width="359" height="2" x="578.5" y="725" rx="1" transform="rotate(29, 758, 726)" opacity="0.28"></rect><rect width="196" height="2" x="-62" y="150" rx="1" transform="rotate(29, 36, 151)" opacity="0.60"></rect><rect width="403" height="2" x="-126.5" y="96" rx="1" transform="rotate(29, 75, 97)" opacity="0.09"></rect><rect width="625" height="2" x="165.5" y="176" rx="1" transform="rotate(29, 478, 177)" opacity="0.70"></rect><rect width="72" height="2" x="143" y="176" rx="1" transform="rotate(29, 179, 177)" opacity="0.72"></rect><rect width="762" height="2" x="237" y="102" rx="1" transform="rotate(29, 618, 103)" opacity="0.89"></rect><rect width="156" height="2" x="524" y="454" rx="1" transform="rotate(29, 602, 455)" opacity="0.98"></rect><rect width="732" height="2" x="-155" y="327" rx="1" transform="rotate(29, 211, 328)" opacity="0.45"></rect><rect width="114" height="2" x="430" y="747" rx="1" transform="rotate(29, 487, 748)" opacity="0.72"></rect><rect width="672" height="2" x="402" y="614" rx="1" transform="rotate(29, 738, 615)" opacity="0.56"></rect><rect width="882" height="2" x="-150" y="501" rx="1" transform="rotate(29, 291, 502)" opacity="0.90"></rect><rect width="264" height="2" x="-43" y="738" rx="1" transform="rotate(29, 89, 739)" opacity="0.86"></rect><rect width="486" height="2" x="398" y="226" rx="1" transform="rotate(29, 641, 227)" opacity="0.27"></rect><rect width="453" height="2" x="186.5" y="78" rx="1" transform="rotate(29, 413, 79)" opacity="0.14"></rect><rect width="85" height="2" x="622.5" y="763" rx="1" transform="rotate(29, 665, 764)" opacity="0.90"></rect><rect width="335" height="2" x="13.5" y="51" rx="1" transform="rotate(29, 181, 52)" opacity="0.58"></rect><rect width="642" height="2" x="-249" y="242" rx="1" transform="rotate(29, 72, 243)" opacity="0.84"></rect><rect width="249" height="2" x="-65.5" y="29" rx="1" transform="rotate(29, 59, 30)" opacity="0.98"></rect><rect width="408" height="2" x="104" y="41" rx="1" transform="rotate(29, 308, 42)" opacity="0.99"></rect><rect width="375" height="2" x="431.5" y="556" rx="1" transform="rotate(29, 619, 557)" opacity="0.62"></rect><rect width="829" height="2" x="-113.5" y="163" rx="1" transform="rotate(29, 301, 164)" opacity="0.66"></rect><rect width="268" height="2" x="39" y="531" rx="1" transform="rotate(29, 173, 532)" opacity="0.28"></rect><rect width="634" height="2" x="-241" y="620" rx="1" transform="rotate(29, 76, 621)" opacity="0.48"></rect></g></svg>